<svg xlink="http://www.w3.org/1999/xlink" viewBox="0 0 5000 5000" xmlns="http://www.w3.org/2000/svg" style="transform: scale(1);"><defs><filter id="goo"><feGaussianBlur in="SourceGraphic" stdDeviation="0" result="blur"></feGaussianBlur><feColorMatrix in="blur" type="matrix" values="1 0 0 0 0 0 1 0 0 0 0 0 1 0 0 0 0 0 19 -9" result="good"></feColorMatrix><feComposite in="SourceGraphic" in2="goo" operator="atop"></feComposite></filter><path d="M250,285C237,264 230,251 222,229Q222,206 241,216C254,232 261,235 282,235C288,260 273,281 250,285z" id="P0"></path><path d="M269,251L255,268L233,242L261,235L269,251z" id="P1"></path><path d="M229,227Q238,205 258,220Q296,241 270,274C255,266 249,266 235,277L229,227z" id="P2"></path><path d="M240,256L239,255L258,241L261,254L240,256z" id="P3"></path><path d="M285,231C291,242 292,255 285,269C254,272 235,268 210,250L253,210C265,211 277,218 285,231z" id="P4"></path><path d="M261,247L249,261L241,244L257,242L261,247z" id="P5"></path><path d="M234,272C231,270 229,268 227,264C235,247 241,238 252,223C271,228 280,246 272,266C256,263 249,265 234,272z" id="P6"></path><path d="M256,236L263,257L247,265L236,256L256,236z" id="P7"></path><path d="M227,250L254,227Q283,239 267,266L229,260C228,257 227,254 227,250z" id="P8"></path><path d="M257,261L256,262L237,252L254,238L257,261z" id="P9"></path></defs><rect id="RECT" width="5000" height="5000" fill="#EFEFEF"></rect><g id="group" fill="#37A3F9" filter=""><use x="-54" y="27" href="#P7"></use><use x="-153" y="300" href="#P8"></use><use x="-43" y="577" href="#P6"></use><use x="-140" y="734" href="#P1"></use><use x="-53" y="1238" href="#P3"></use><use x="-150" y="1539" href="#P0"></use><use x="36" y="1786" href="#P7"></use><use x="-8" y="2180" href="#P4"></use><use x="-16" y="2565" href="#P3"></use><use x="44" y="2756" href="#P8"></use><use x="-201" y="3241" href="#P8"></use><use x="34" y="3428" href="#P5"></use><use x="0" y="3698" href="#P6"></use><use x="-234" y="3975" href="#P7"></use><use x="-37" y="4315" href="#P9"></use><use x="-106" y="4647" href="#P1"></use><use x="83" y="5144" href="#P8"></use><use x="220" y="-236" href="#P4"></use><use x="375" y="137" href="#P4"></use><use x="169" y="512" href="#P7"></use><use x="128" y="772" href="#P0"></use><use x="312" y="1270" href="#P5"></use><use x="325" y="1611" href="#P4"></use><use x="311" y="1954" href="#P7"></use><use x="239" y="2322" href="#P9"></use><use x="166" y="2451" href="#P4"></use><use x="386" y="2807" href="#P0"></use><use x="108" y="3209" href="#P9"></use><use x="422" y="3391" href="#P9"></use><use x="386" y="3911" href="#P6"></use><use x="219" y="4183" href="#P7"></use><use x="419" y="4293" href="#P8"></use><use x="311" y="4898" href="#P8"></use><use x="426" y="5225" href="#P2"></use><use x="478" y="-189" href="#P9"></use><use x="539" y="106" href="#P6"></use><use x="614" y="705" href="#P9"></use><use x="542" y="1024" href="#P0"></use><use x="583" y="1068" href="#P7"></use><use x="648" y="1539" href="#P9"></use><use x="678" y="1988" href="#P4"></use><use x="554" y="2240" href="#P3"></use><use x="761" y="2426" href="#P5"></use><use x="722" y="2918" href="#P0"></use><use x="718" y="3005" href="#P0"></use><use x="744" y="3427" href="#P6"></use><use x="520" y="3723" href="#P9"></use><use x="497" y="4265" href="#P7"></use><use x="746" y="4440" href="#P2"></use><use x="736" y="4839" href="#P9"></use><use x="688" y="4954" href="#P8"></use><use x="932" y="-141" href="#P3"></use><use x="801" y="122" href="#P3"></use><use x="933" y="681" href="#P3"></use><use x="1063" y="973" href="#P5"></use><use x="1062" y="1341" href="#P0"></use><use x="857" y="1425" href="#P6"></use><use x="814" y="1821" href="#P5"></use><use x="908" y="2104" href="#P0"></use><use x="1092" y="2574" href="#P4"></use><use x="1042" y="2760" href="#P5"></use><use x="832" y="3097" href="#P4"></use><use x="847" y="3553" href="#P0"></use><use x="856" y="3736" href="#P5"></use><use x="841" y="4128" href="#P5"></use><use x="1032" y="4600" href="#P0"></use><use x="992" y="4767" href="#P5"></use><use x="885" y="5197" href="#P3"></use><use x="1256" y="-126" href="#P2"></use><use x="1278" y="166" href="#P8"></use><use x="1345" y="603" href="#P4"></use><use x="1249" y="783" href="#P9"></use><use x="1265" y="1295" href="#P4"></use><use x="1351" y="1691" href="#P4"></use><use x="1366" y="1888" href="#P7"></use><use x="1270" y="2034" href="#P1"></use><use x="1179" y="2651" href="#P9"></use><use x="1433" y="2813" href="#P3"></use><use x="1391" y="3167" href="#P5"></use><use x="1125" y="3438" href="#P3"></use><use x="1414" y="3650" href="#P9"></use><use x="1222" y="4261" href="#P6"></use><use x="1422" y="4464" href="#P3"></use><use x="1430" y="4807" href="#P2"></use><use x="1131" y="4996" href="#P6"></use><use x="1499" y="29" href="#P4"></use><use x="1472" y="141" href="#P3"></use><use x="1570" y="662" href="#P7"></use><use x="1712" y="757" href="#P0"></use><use x="1505" y="1293" href="#P3"></use><use x="1616" y="1474" href="#P6"></use><use x="1494" y="1904" href="#P7"></use><use x="1781" y="2072" href="#P6"></use><use x="1635" y="2616" href="#P5"></use><use x="1766" y="2695" href="#P8"></use><use x="1543" y="3293" href="#P9"></use><use x="1622" y="3503" href="#P6"></use><use x="1798" y="3786" href="#P1"></use><use x="1610" y="4179" href="#P8"></use><use x="1622" y="4304" href="#P0"></use><use x="1484" y="4693" href="#P7"></use><use x="1602" y="5233" href="#P3"></use><use x="2124" y="-247" href="#P4"></use><use x="2079" y="377" href="#P6"></use><use x="1875" y="671" href="#P9"></use><use x="1913" y="962" href="#P0"></use><use x="1920" y="1166" href="#P7"></use><use x="2056" y="1549" href="#P8"></use><use x="1904" y="1979" href="#P9"></use><use x="1813" y="2056" href="#P3"></use><use x="2061" y="2367" href="#P4"></use><use x="1824" y="2843" href="#P9"></use><use x="1870" y="3073" href="#P6"></use><use x="2065" y="3544" href="#P2"></use><use x="1926" y="3930" href="#P2"></use><use x="1940" y="4203" href="#P6"></use><use x="1920" y="4479" href="#P1"></use><use x="1932" y="4858" href="#P1"></use><use x="1966" y="4961" href="#P7"></use><use x="2190" y="-173" href="#P5"></use><use x="2156" y="147" href="#P5"></use><use x="2464" y="407" href="#P3"></use><use x="2243" y="969" href="#P5"></use><use x="2391" y="1354" href="#P4"></use><use x="2365" y="1440" href="#P3"></use><use x="2432" y="1969" href="#P6"></use><use x="2182" y="2035" href="#P8"></use><use x="2179" y="2628" href="#P6"></use><use x="2293" y="2805" href="#P4"></use><use x="2281" y="3012" href="#P8"></use><use x="2322" y="3581" href="#P5"></use><use x="2429" y="3637" href="#P2"></use><use x="2352" y="4171" href="#P0"></use><use x="2467" y="4408" href="#P9"></use><use x="2305" y="4649" href="#P0"></use><use x="2389" y="5129" href="#P4"></use><use x="2682" y="-70" href="#P3"></use><use x="2622" y="358" href="#P7"></use><use x="2757" y="631" href="#P0"></use><use x="2629" y="831" href="#P0"></use><use x="2525" y="1335" href="#P6"></use><use x="2746" y="1421" href="#P2"></use><use x="2659" y="1747" href="#P3"></use><use x="2778" y="2082" href="#P8"></use><use x="2606" y="2577" href="#P6"></use><use x="2647" y="2899" href="#P7"></use><use x="2655" y="2999" href="#P7"></use><use x="2708" y="3566" href="#P9"></use><use x="2704" y="3729" href="#P5"></use><use x="2801" y="4089" href="#P1"></use><use x="2517" y="4371" href="#P3"></use><use x="2734" y="4659" href="#P0"></use><use x="2784" y="5090" href="#P0"></use><use x="3018" y="-240" href="#P1"></use><use x="3099" y="89" href="#P4"></use><use x="3071" y="578" href="#P7"></use><use x="2953" y="841" href="#P6"></use><use x="3161" y="1303" href="#P0"></use><use x="2902" y="1534" href="#P0"></use><use x="3170" y="1814" href="#P0"></use><use x="3054" y="2078" href="#P1"></use><use x="3176" y="2596" href="#P9"></use><use x="3112" y="2876" href="#P7"></use><use x="3056" y="3155" href="#P9"></use><use x="2912" y="3588" href="#P4"></use><use x="2931" y="3739" href="#P3"></use><use x="2980" y="3990" href="#P3"></use><use x="2915" y="4374" href="#P4"></use><use x="2927" y="4752" href="#P5"></use><use x="2896" y="5163" href="#P7"></use><use x="3237" y="-17" href="#P5"></use><use x="3210" y="354" href="#P3"></use><use x="3215" y="566" href="#P4"></use><use x="3346" y="876" href="#P3"></use><use x="3377" y="1254" href="#P6"></use><use x="3191" y="1679" href="#P4"></use><use x="3446" y="1721" href="#P5"></use><use x="3214" y="2083" href="#P3"></use><use x="3307" y="2417" href="#P3"></use><use x="3282" y="2886" href="#P4"></use><use x="3213" y="3015" href="#P2"></use><use x="3207" y="3604" href="#P2"></use><use x="3418" y="3747" href="#P6"></use><use x="3269" y="4106" href="#P6"></use><use x="3272" y="4405" href="#P9"></use><use x="3279" y="4670" href="#P2"></use><use x="3263" y="5148" href="#P3"></use><use x="3664" y="-59" href="#P8"></use><use x="3811" y="116" href="#P2"></use><use x="3745" y="615" href="#P2"></use><use x="3725" y="763" href="#P8"></use><use x="3832" y="1249" href="#P7"></use><use x="3862" y="1590" href="#P6"></use><use x="3557" y="1979" href="#P5"></use><use x="3722" y="2322" href="#P1"></use><use x="3606" y="2563" href="#P0"></use><use x="3616" y="2683" href="#P7"></use><use x="3695" y="3290" href="#P9"></use><use x="3619" y="3349" href="#P2"></use><use x="3625" y="3753" href="#P6"></use><use x="3747" y="4247" href="#P2"></use><use x="3779" y="4303" href="#P1"></use><use x="3754" y="4928" href="#P6"></use><use x="3728" y="5081" href="#P0"></use><use x="3963" y="7" href="#P7"></use><use x="4115" y="130" href="#P7"></use><use x="4178" y="412" href="#P3"></use><use x="4116" y="775" href="#P5"></use><use x="4014" y="1058" href="#P5"></use><use x="4047" y="1543" href="#P4"></use><use x="3971" y="1873" href="#P6"></use><use x="4041" y="2156" href="#P4"></use><use x="3893" y="2351" href="#P5"></use><use x="4010" y="2676" href="#P7"></use><use x="4058" y="3249" href="#P6"></use><use x="3989" y="3367" href="#P6"></use><use x="3881" y="3912" href="#P9"></use><use x="4175" y="4132" href="#P5"></use><use x="4200" y="4351" href="#P1"></use><use x="4033" y="4768" href="#P6"></use><use x="4190" y="4939" href="#P1"></use><use x="4445" y="-75" href="#P2"></use><use x="4353" y="119" href="#P7"></use><use x="4434" y="567" href="#P0"></use><use x="4367" y="818" href="#P3"></use><use x="4438" y="1083" href="#P5"></use><use x="4340" y="1605" href="#P1"></use><use x="4561" y="1757" href="#P1"></use><use x="4393" y="2202" href="#P6"></use><use x="4292" y="2626" href="#P3"></use><use x="4443" y="2824" href="#P2"></use><use x="4473" y="3076" href="#P5"></use><use x="4483" y="3505" href="#P1"></use><use x="4245" y="3745" href="#P2"></use><use x="4432" y="4057" href="#P3"></use><use x="4512" y="4561" href="#P0"></use><use x="4284" y="4659" href="#P0"></use><use x="4257" y="5239" href="#P3"></use><use x="4608" y="-196" href="#P3"></use><use x="4764" y="230" href="#P2"></use><use x="4739" y="498" href="#P5"></use><use x="4593" y="902" href="#P2"></use><use x="4701" y="1343" href="#P8"></use><use x="4894" y="1432" href="#P9"></use><use x="4587" y="1824" href="#P1"></use><use x="4798" y="2095" href="#P9"></use><use x="4607" y="2646" href="#P2"></use><use x="4605" y="2787" href="#P1"></use><use x="4748" y="3007" href="#P6"></use><use x="4640" y="3567" href="#P5"></use><use x="4740" y="3850" href="#P6"></use><use x="4655" y="4002" href="#P5"></use><use x="4630" y="4285" href="#P9"></use><use x="4765" y="4697" href="#P0"></use><use x="4642" y="5055" href="#P0"></use><use x="5050" y="-124" href="#P8"></use><use x="5083" y="111" href="#P8"></use><use x="5167" y="639" href="#P8"></use><use x="5034" y="759" href="#P2"></use><use x="5166" y="1177" href="#P2"></use><use x="5109" y="1681" href="#P3"></use><use x="5152" y="1943" href="#P9"></use><use x="5228" y="2219" href="#P7"></use><use x="5224" y="2523" href="#P9"></use><use x="5227" y="2750" href="#P1"></use><use x="5201" y="3248" href="#P2"></use><use x="4907" y="3544" href="#P6"></use><use x="4954" y="3887" href="#P0"></use><use x="5116" y="4252" href="#P2"></use><use x="5022" y="4449" href="#P1"></use><use x="5038" y="4756" href="#P9"></use><use x="5001" y="5129" href="#P9"></use></g></svg>